<?xml version="1.0" standalone="no"?><!DOCTYPE svg PUBLIC "-//W3C//DTD SVG 1.1//EN" "http://www.w3.org/Graphics/SVG/1.1/DTD/svg11.dtd"><svg t="1723089450418" class="icon" viewBox="0 0 1024 1024" version="1.1" xmlns="http://www.w3.org/2000/svg" p-id="36150" xmlns:xlink="http://www.w3.org/1999/xlink" width="200" height="200"><path d="M992.682113 457.430955l-431.807229 0q2.847081 10.439296 13.286376 41.282669t30.843373 72.600556 52.670992 91.10658 79.243744 97.275255 110.087118 90.632067 144.726599 71.177016l0 102.494903q-67.380908-14.235403-138.083411-48.874884t-136.185357-87.784986-121.47544-123.373494-93.953661-155.640408q-34.164968 75.92215-83.988879 144.252085t-111.036145 123.373494-130.965709 93.953661-143.777572 54.094532l0-101.545876q80.667285-27.521779 141.405005-69.278962t105.341983-89.208526 74.49861-95.851715 48.400371-90.632067 27.521779-74.49861 11.862836-45.55329l-409.030584 0 0-98.698795 421.367933 0 0-259.084337-377.712697 0 0-99.647822 872.1557 0 0 99.647822-394.795181 0 0 259.084337 439.399444 0 0 98.698795z" p-id="36151" fill="#0e932e"></path></svg>