<svg t="1776215002839" class="icon" viewBox="0 0 1024 1024" version="1.1" xmlns="http://www.w3.org/2000/svg" p-id="3768" width="200" height="200"><path d="M512 512m-512 0a12 12 0 1 0 1024 0 12 12 0 1 0-1024 0Z" fill="#6B9BD2" p-id="3769" class="selected"></path><path d="M655.543435 689.879996 684.235983 774.905331C678.727894 783.259191 665.457408 791.158084 644.433329 798.59613 623.404847 806.031241 602.239874 809.858871 580.939878 810.074615 556.055881 810.561877 533.283831 807.456329 512.62373 800.753574 491.963628 794.05082 474.931556 785.206763 461.526046 774.215539 448.120536 763.228715 436.7668 750.557026 427.460434 736.20195 418.157004 721.849805 411.514423 707.509402 407.537093 693.183676 403.55536 678.862353 401.581371 664.752371 401.612192 650.855198L401.612192 455.740006 341.332893 455.740006 341.332893 378.609156C358.564565 372.396596 373.992497 364.085297 387.609348 353.679662 401.229135 343.272559 412.113224 332.514689 420.252808 321.404582 428.392392 310.294476 435.325568 298.096841 441.050868 284.813146 446.773234 271.530918 450.843026 259.700196 453.260244 249.325382 455.678931 238.952035 457.472399 228.374686 458.633309 217.602139 458.878406 216.40894 459.415566 215.397729 460.240385 214.571442 461.066672 213.746623 461.970744 213.332746 462.949666 213.332746L550.452395 213.332746 550.452395 365.434066 669.911724 365.434066 669.911724 455.831 550.13098 455.831 550.13098 641.626615C550.13098 648.790212 550.913237 655.492971 552.471881 661.73635 554.036395 667.981197 556.729532 674.255398 560.554226 680.560422 564.378921 686.865442 570.303822 691.823164 578.321591 695.433583 586.33936 699.046933 596.087488 700.714185 607.565974 700.438268 626.20659 699.94807 642.228919 696.475614 655.635897 690.017954L655.543435 689.879996Z" fill="#FFFFFF" p-id="3770"></path></svg>
